<?xml version="1.0" encoding="UTF-8" standalone="no"?>
<!DOCTYPE svg PUBLIC "-//W3C//DTD SVG 1.1//EN" "http://www.w3.org/Graphics/SVG/1.1/DTD/svg11.dtd">
<svg version="1.1" xmlns="http://www.w3.org/2000/svg" xmlns:xlink="http://www.w3.org/1999/xlink" preserveAspectRatio="xMidYMid meet" viewBox="0 0 350 350" width="350" height="350"><defs><path d="M50 300L50 50L100 50L100 300L50 300Z" id="bURdExjt"></path><path d="M150 200L50 200L50 150L150 150L150 200Z" id="bap2aAzVJ"></path><path d="M250 100L150 100L150 50L250 50L250 100Z" id="aRwSYLlKw"></path><path d="M250 300L250 200L300 200L300 300L250 300Z" id="g2aaRnsmUs"></path><path d="M300.01 299.99L150.01 299.99L150.01 249.99L300.01 249.99L300.01 299.99Z" id="aRUkDkrPV"></path><path d="M200 150L200 50L250 50L250 150L200 150Z" id="bKF4NNPqn"></path></defs><g><g><g><g><use xlink:href="#bURdExjt" opacity="1" fill="#ffffff" fill-opacity="1"></use><g><use xlink:href="#bURdExjt" opacity="1" fill-opacity="0" stroke="#000000" stroke-width="1" stroke-opacity="0"></use></g></g><g><use xlink:href="#bap2aAzVJ" opacity="1" fill="#ffffff" fill-opacity="1"></use><g><use xlink:href="#bap2aAzVJ" opacity="1" fill-opacity="0" stroke="#000000" stroke-width="1" stroke-opacity="0"></use></g></g><g><use xlink:href="#aRwSYLlKw" opacity="1" fill="#ffffff" fill-opacity="1"></use><g><use xlink:href="#aRwSYLlKw" opacity="1" fill-opacity="0" stroke="#000000" stroke-width="1" stroke-opacity="0"></use></g></g><g><use xlink:href="#g2aaRnsmUs" opacity="1" fill="#ffffff" fill-opacity="1"></use><g><use xlink:href="#g2aaRnsmUs" opacity="1" fill-opacity="0" stroke="#000000" stroke-width="1" stroke-opacity="0"></use></g></g><g><use xlink:href="#aRUkDkrPV" opacity="1" fill="#ffffff" fill-opacity="1"></use><g><use xlink:href="#aRUkDkrPV" opacity="1" fill-opacity="0" stroke="#000000" stroke-width="1" stroke-opacity="0"></use></g></g><g><use xlink:href="#bKF4NNPqn" opacity="1" fill="#ffffff" fill-opacity="1"></use><g><use xlink:href="#bKF4NNPqn" opacity="1" fill-opacity="0" stroke="#000000" stroke-width="1" stroke-opacity="0"></use></g></g></g></g></g></svg>