<?xml version="1.0" encoding="UTF-8" standalone="no"?>
<!DOCTYPE svg PUBLIC "-//W3C//DTD SVG 1.1//EN" "http://www.w3.org/Graphics/SVG/1.1/DTD/svg11.dtd">
<svg version="1.1" xmlns="http://www.w3.org/2000/svg" xmlns:xlink="http://www.w3.org/1999/xlink" preserveAspectRatio="xMidYMid meet" viewBox="0 0 550 550" width="550" height="550"><defs><path d="M0 61.11L0 0L550 0L550 61.11L0 61.11Z" id="aLBgINNMQ"></path><path d="M0 550L0 488.89L550 488.89L550 550L0 550Z" id="d2wYgEK2RS"></path><path d="M0 0L61.11 0L61.11 550L0 550L0 0Z" id="cqArvfuDS"></path><path d="M488.89 0L550 0L550 550L488.89 550L488.89 0Z" id="b6FVnuH5Od"></path><path d="M122.22 122.22L183.33 122.22L183.33 427.78L122.22 427.78L122.22 122.22Z" id="ceBMlW85g"></path><path d="M122.22 305.56L122.22 244.45L244.44 244.45L244.44 305.56L122.22 305.56Z" id="fcSyEMJJF"></path><path d="M244.44 183.33L244.44 122.22L366.67 122.22L366.67 183.33L244.44 183.33Z" id="aZZd0Mjfe"></path><path d="M366.67 305.56L427.78 305.56L427.78 427.78L366.67 427.78L366.67 305.56Z" id="d48jjAnaCP"></path><path d="M244.46 427.77L244.46 366.66L427.79 366.66L427.79 427.77L244.46 427.77Z" id="b34s1Z4njU"></path><path d="M305.55 122.22L366.67 122.22L366.67 244.45L305.55 244.45L305.55 122.22Z" id="bcZ88GCSe"></path></defs><g><g><g><g><use xlink:href="#aLBgINNMQ" opacity="1" fill="#343a40" fill-opacity="1"></use><g><use xlink:href="#aLBgINNMQ" opacity="1" fill-opacity="0" stroke="#000000" stroke-width="1" stroke-opacity="0"></use></g></g><g><use xlink:href="#d2wYgEK2RS" opacity="1" fill="#343a40" fill-opacity="1"></use><g><use xlink:href="#d2wYgEK2RS" opacity="1" fill-opacity="0" stroke="#000000" stroke-width="1" stroke-opacity="0"></use></g></g><g><use xlink:href="#cqArvfuDS" opacity="1" fill="#343a40" fill-opacity="1"></use><g><use xlink:href="#cqArvfuDS" opacity="1" fill-opacity="0" stroke="#000000" stroke-width="1" stroke-opacity="0"></use></g></g><g><use xlink:href="#b6FVnuH5Od" opacity="1" fill="#343a40" fill-opacity="1"></use><g><use xlink:href="#b6FVnuH5Od" opacity="1" fill-opacity="0" stroke="#000000" stroke-width="1" stroke-opacity="0"></use></g></g><g><use xlink:href="#ceBMlW85g" opacity="1" fill="#343a40" fill-opacity="1"></use><g><use xlink:href="#ceBMlW85g" opacity="1" fill-opacity="0" stroke="#000000" stroke-width="1" stroke-opacity="0"></use></g></g><g><use xlink:href="#fcSyEMJJF" opacity="1" fill="#343a40" fill-opacity="1"></use><g><use xlink:href="#fcSyEMJJF" opacity="1" fill-opacity="0" stroke="#000000" stroke-width="1" stroke-opacity="0"></use></g></g><g><use xlink:href="#aZZd0Mjfe" opacity="1" fill="#343a40" fill-opacity="1"></use><g><use xlink:href="#aZZd0Mjfe" opacity="1" fill-opacity="0" stroke="#000000" stroke-width="1" stroke-opacity="0"></use></g></g><g><use xlink:href="#d48jjAnaCP" opacity="1" fill="#343a40" fill-opacity="1"></use><g><use xlink:href="#d48jjAnaCP" opacity="1" fill-opacity="0" stroke="#000000" stroke-width="1" stroke-opacity="0"></use></g></g><g><use xlink:href="#b34s1Z4njU" opacity="1" fill="#343a40" fill-opacity="1"></use><g><use xlink:href="#b34s1Z4njU" opacity="1" fill-opacity="0" stroke="#000000" stroke-width="1" stroke-opacity="0"></use></g></g><g><use xlink:href="#bcZ88GCSe" opacity="1" fill="#343a40" fill-opacity="1"></use><g><use xlink:href="#bcZ88GCSe" opacity="1" fill-opacity="0" stroke="#000000" stroke-width="1" stroke-opacity="0"></use></g></g></g></g></g></svg>