<?xml version="1.0" encoding="UTF-8" standalone="no"?>
<!DOCTYPE svg PUBLIC "-//W3C//DTD SVG 1.1//EN" "http://www.w3.org/Graphics/SVG/1.1/DTD/svg11.dtd">
<svg version="1.1" xmlns="http://www.w3.org/2000/svg" xmlns:xlink="http://www.w3.org/1999/xlink" preserveAspectRatio="xMidYMid meet" viewBox="0 0 550 550" width="550" height="550"><defs><path d="M0 0L550 0L550 550L0 550L0 0Z" id="bya7mqBkH"></path><path d="M500 100L50 100L50 50L500 50L500 100Z" id="d35o0QDSxC"></path><path d="M500 500L50 500L50 450L500 450L500 500Z" id="b5bShMeGwu"></path><path d="M50 500L50 50L100 50L100 500L50 500Z" id="evvwiN6Sa"></path><path d="M450 500L450 50L500 50L500 500L450 500Z" id="c1OUZrorSn"></path><path d="M150 400L150 150L200 150L200 400L150 400Z" id="f1fCafuSYZ"></path><path d="M150 400L150 150L200 150L200 400L150 400Z" id="bivrFtK6"></path><path d="M250 300L150 300L150 250L250 250L250 300Z" id="aLIWj7Wh3"></path><path d="M350 200L250 200L250 150L350 150L350 200Z" id="blZFaSGKg"></path><path d="M350 400L350 300L400 300L400 400L350 400Z" id="d1BnGMIcAp"></path><path d="M400.01 399.99L250.01 399.99L250.01 349.99L400.01 349.99L400.01 399.99Z" id="ha0XmZtJq"></path><path d="M300 250L300 150L350 150L350 250L300 250Z" id="c7mTbGmHm"></path></defs><g><g><g><use xlink:href="#bya7mqBkH" opacity="1" fill="#171717" fill-opacity="1"></use></g><g><g><use xlink:href="#d35o0QDSxC" opacity="1" fill="#ffffff" fill-opacity="1"></use><g><use xlink:href="#d35o0QDSxC" opacity="1" fill-opacity="0" stroke="#000000" stroke-width="1" stroke-opacity="0"></use></g></g><g><use xlink:href="#b5bShMeGwu" opacity="1" fill="#ffffff" fill-opacity="1"></use><g><use xlink:href="#b5bShMeGwu" opacity="1" fill-opacity="0" stroke="#000000" stroke-width="1" stroke-opacity="0"></use></g></g><g><use xlink:href="#evvwiN6Sa" opacity="1" fill="#ffffff" fill-opacity="1"></use><g><use xlink:href="#evvwiN6Sa" opacity="1" fill-opacity="0" stroke="#000000" stroke-width="1" stroke-opacity="0"></use></g></g><g><use xlink:href="#c1OUZrorSn" opacity="1" fill="#ffffff" fill-opacity="1"></use><g><use xlink:href="#c1OUZrorSn" opacity="1" fill-opacity="0" stroke="#000000" stroke-width="1" stroke-opacity="0"></use></g></g><g><use xlink:href="#f1fCafuSYZ" opacity="1" fill="#ffffff" fill-opacity="1"></use><g><use xlink:href="#f1fCafuSYZ" opacity="1" fill-opacity="0" stroke="#000000" stroke-width="1" stroke-opacity="0"></use></g></g><g><use xlink:href="#bivrFtK6" opacity="1" fill="#ffffff" fill-opacity="1"></use><g><use xlink:href="#bivrFtK6" opacity="1" fill-opacity="0" stroke="#000000" stroke-width="1" stroke-opacity="0"></use></g></g><g><use xlink:href="#aLIWj7Wh3" opacity="1" fill="#ffffff" fill-opacity="1"></use><g><use xlink:href="#aLIWj7Wh3" opacity="1" fill-opacity="0" stroke="#000000" stroke-width="1" stroke-opacity="0"></use></g></g><g><use xlink:href="#blZFaSGKg" opacity="1" fill="#ffffff" fill-opacity="1"></use><g><use xlink:href="#blZFaSGKg" opacity="1" fill-opacity="0" stroke="#000000" stroke-width="1" stroke-opacity="0"></use></g></g><g><use xlink:href="#d1BnGMIcAp" opacity="1" fill="#ffffff" fill-opacity="1"></use><g><use xlink:href="#d1BnGMIcAp" opacity="1" fill-opacity="0" stroke="#000000" stroke-width="1" stroke-opacity="0"></use></g></g><g><use xlink:href="#ha0XmZtJq" opacity="1" fill="#ffffff" fill-opacity="1"></use><g><use xlink:href="#ha0XmZtJq" opacity="1" fill-opacity="0" stroke="#000000" stroke-width="1" stroke-opacity="0"></use></g></g><g><use xlink:href="#c7mTbGmHm" opacity="1" fill="#ffffff" fill-opacity="1"></use><g><use xlink:href="#c7mTbGmHm" opacity="1" fill-opacity="0" stroke="#000000" stroke-width="1" stroke-opacity="0"></use></g></g></g></g></g></svg>