<?xml version="1.0" encoding="UTF-8" standalone="no"?>
<!DOCTYPE svg PUBLIC "-//W3C//DTD SVG 1.1//EN" "http://www.w3.org/Graphics/SVG/1.1/DTD/svg11.dtd">
<svg version="1.1" xmlns="http://www.w3.org/2000/svg" xmlns:xlink="http://www.w3.org/1999/xlink" preserveAspectRatio="xMidYMid meet" viewBox="0 0 450 450" width="450" height="450"><defs><path d="M450 50L0 50L0 0L450 0L450 50Z" id="a3jqDeeDHk"></path><path d="M450 50L0 50L0 0L450 0L450 50Z" id="f78WcNo9t"></path><path d="M450 450L0 450L0 400L450 400L450 450Z" id="a58kIcqbkB"></path><path d="M450 450L0 450L0 400L450 400L450 450Z" id="cOgKN3mUB"></path><path d="M0 450L0 0L50 0L50 450L0 450Z" id="bwmepY4Vk"></path><path d="M0 450L0 0L50 0L50 450L0 450Z" id="a16v8MHq4j"></path><path d="M400 450L400 0L450 0L450 450L400 450Z" id="l5BBqHahz3"></path><path d="M400 450L400 0L450 0L450 450L400 450Z" id="a1arwJNVXZ"></path><path d="M100 350L100 100L150 100L150 350L100 350Z" id="a2uaPG1LzR"></path><path d="M100 350L100 100L150 100L150 350L100 350Z" id="d5TTRWcLo"></path><path d="M200 250L100 250L100 200L200 200L200 250Z" id="a8cmftdnc"></path><path d="M300 150L200 150L200 100L300 100L300 150Z" id="dXssYxCdq"></path><path d="M300 350L300 250L350 250L350 350L300 350Z" id="bGcSib7BX"></path><path d="M350.01 349.99L200.01 349.99L200.01 299.99L350.01 299.99L350.01 349.99Z" id="h49eS63nA"></path><path d="M250 200L250 100L300 100L300 200L250 200Z" id="adrwPOGX7"></path></defs><g><g><g><use xlink:href="#a3jqDeeDHk" opacity="1" fill="#171717" fill-opacity="1"></use><g><use xlink:href="#a3jqDeeDHk" opacity="1" fill-opacity="0" stroke="#000000" stroke-width="1" stroke-opacity="0"></use></g></g><g><use xlink:href="#f78WcNo9t" opacity="1" fill="#000000" fill-opacity="0"></use><g><use xlink:href="#f78WcNo9t" opacity="1" fill-opacity="0" stroke="#000000" stroke-width="1" stroke-opacity="0"></use></g></g><g><use xlink:href="#a58kIcqbkB" opacity="1" fill="#171717" fill-opacity="1"></use><g><use xlink:href="#a58kIcqbkB" opacity="1" fill-opacity="0" stroke="#000000" stroke-width="1" stroke-opacity="0"></use></g></g><g><use xlink:href="#cOgKN3mUB" opacity="1" fill="#000000" fill-opacity="0"></use><g><use xlink:href="#cOgKN3mUB" opacity="1" fill-opacity="0" stroke="#000000" stroke-width="1" stroke-opacity="0"></use></g></g><g><use xlink:href="#bwmepY4Vk" opacity="1" fill="#171717" fill-opacity="1"></use><g><use xlink:href="#bwmepY4Vk" opacity="1" fill-opacity="0" stroke="#000000" stroke-width="1" stroke-opacity="0"></use></g></g><g><use xlink:href="#a16v8MHq4j" opacity="1" fill="#000000" fill-opacity="0"></use><g><use xlink:href="#a16v8MHq4j" opacity="1" fill-opacity="0" stroke="#000000" stroke-width="1" stroke-opacity="0"></use></g></g><g><use xlink:href="#l5BBqHahz3" opacity="1" fill="#171717" fill-opacity="1"></use><g><use xlink:href="#l5BBqHahz3" opacity="1" fill-opacity="0" stroke="#000000" stroke-width="1" stroke-opacity="0"></use></g></g><g><use xlink:href="#a1arwJNVXZ" opacity="1" fill="#000000" fill-opacity="0"></use><g><use xlink:href="#a1arwJNVXZ" opacity="1" fill-opacity="0" stroke="#000000" stroke-width="1" stroke-opacity="0"></use></g></g><g><use xlink:href="#a2uaPG1LzR" opacity="1" fill="#171717" fill-opacity="1"></use><g><use xlink:href="#a2uaPG1LzR" opacity="1" fill-opacity="0" stroke="#000000" stroke-width="1" stroke-opacity="0"></use></g></g><g><use xlink:href="#d5TTRWcLo" opacity="1" fill="#000000" fill-opacity="0"></use><g><use xlink:href="#d5TTRWcLo" opacity="1" fill-opacity="0" stroke="#000000" stroke-width="1" stroke-opacity="0"></use></g></g><g><use xlink:href="#a8cmftdnc" opacity="1" fill="#171717" fill-opacity="1"></use><g><use xlink:href="#a8cmftdnc" opacity="1" fill-opacity="0" stroke="#000000" stroke-width="1" stroke-opacity="0"></use></g></g><g><use xlink:href="#dXssYxCdq" opacity="1" fill="#171717" fill-opacity="1"></use><g><use xlink:href="#dXssYxCdq" opacity="1" fill-opacity="0" stroke="#000000" stroke-width="1" stroke-opacity="0"></use></g></g><g><use xlink:href="#bGcSib7BX" opacity="1" fill="#171717" fill-opacity="1"></use><g><use xlink:href="#bGcSib7BX" opacity="1" fill-opacity="0" stroke="#000000" stroke-width="1" stroke-opacity="0"></use></g></g><g><use xlink:href="#h49eS63nA" opacity="1" fill="#171717" fill-opacity="1"></use><g><use xlink:href="#h49eS63nA" opacity="1" fill-opacity="0" stroke="#000000" stroke-width="1" stroke-opacity="0"></use></g></g><g><use xlink:href="#adrwPOGX7" opacity="1" fill="#171717" fill-opacity="1"></use><g><use xlink:href="#adrwPOGX7" opacity="1" fill-opacity="0" stroke="#000000" stroke-width="1" stroke-opacity="0"></use></g></g></g></g></svg>