<?xml version="1.0" encoding="UTF-8" standalone="no"?>
<!DOCTYPE svg PUBLIC "-//W3C//DTD SVG 1.1//EN" "http://www.w3.org/Graphics/SVG/1.1/DTD/svg11.dtd">
<svg version="1.1" xmlns="http://www.w3.org/2000/svg" xmlns:xlink="http://www.w3.org/1999/xlink" preserveAspectRatio="xMidYMid meet" viewBox="0 0 450 450" width="450" height="450"><defs><path d="M450 0L450 50L0 50L0 0L450 0Z" id="b12w55XcCl"></path><path d="M450 450L400 450L400 0L450 0L450 450Z" id="d3YmEYXWjl"></path><path d="M50 450L0 450L0 0L50 0L50 450Z" id="aP9mAHmYl"></path><path d="M150 250L100 250L100 100L150 100L150 250Z" id="abENVcAL9"></path><path d="M450 400L450 450L0 450L0 400L450 400Z" id="a1qwfz4hnu"></path><path d="M250 200L250 250L100 250L100 200L250 200Z" id="cxpwueCHm"></path><path d="M350 100L350 150L200 150L200 100L350 100Z" id="a2FirHDhJR"></path><path d="M350 250L300 250L300 100L350 100L350 250Z" id="bCVrse7PZ"></path><path d="M250 350L200 350L200 200L250 200L250 350Z" id="fa97qSrE"></path><path d="M350.01 299.99L350.01 349.99L200.01 349.99L200.01 299.99L350.01 299.99Z" id="b4jY5Zbmje"></path><path d="M156.25 300L156.25 356.25L100 356.25L100 300L156.25 300Z" id="auUfNV6iS"></path></defs><g><g><g><use xlink:href="#b12w55XcCl" opacity="1" fill="#ffffff" fill-opacity="1"></use><g><use xlink:href="#b12w55XcCl" opacity="1" fill-opacity="0" stroke="#000000" stroke-width="1" stroke-opacity="0"></use></g></g><g><use xlink:href="#d3YmEYXWjl" opacity="1" fill="#ffffff" fill-opacity="1"></use><g><use xlink:href="#d3YmEYXWjl" opacity="1" fill-opacity="0" stroke="#000000" stroke-width="1" stroke-opacity="0"></use></g></g><g><use xlink:href="#aP9mAHmYl" opacity="1" fill="#ffffff" fill-opacity="1"></use><g><use xlink:href="#aP9mAHmYl" opacity="1" fill-opacity="0" stroke="#000000" stroke-width="1" stroke-opacity="0"></use></g></g><g><use xlink:href="#abENVcAL9" opacity="1" fill="#ffffff" fill-opacity="1"></use><g><use xlink:href="#abENVcAL9" opacity="1" fill-opacity="0" stroke="#000000" stroke-width="1" stroke-opacity="0"></use></g></g><g><use xlink:href="#a1qwfz4hnu" opacity="1" fill="#ffffff" fill-opacity="1"></use><g><use xlink:href="#a1qwfz4hnu" opacity="1" fill-opacity="0" stroke="#000000" stroke-width="1" stroke-opacity="0"></use></g></g><g><use xlink:href="#cxpwueCHm" opacity="1" fill="#ffffff" fill-opacity="1"></use><g><use xlink:href="#cxpwueCHm" opacity="1" fill-opacity="0" stroke="#000000" stroke-width="1" stroke-opacity="0"></use></g></g><g><use xlink:href="#a2FirHDhJR" opacity="1" fill="#ffffff" fill-opacity="1"></use><g><use xlink:href="#a2FirHDhJR" opacity="1" fill-opacity="0" stroke="#000000" stroke-width="1" stroke-opacity="0"></use></g></g><g><use xlink:href="#bCVrse7PZ" opacity="1" fill="#ffffff" fill-opacity="1"></use><g><use xlink:href="#bCVrse7PZ" opacity="1" fill-opacity="0" stroke="#000000" stroke-width="1" stroke-opacity="0"></use></g></g><g><use xlink:href="#fa97qSrE" opacity="1" fill="#ffffff" fill-opacity="1"></use><g><use xlink:href="#fa97qSrE" opacity="1" fill-opacity="0" stroke="#000000" stroke-width="1" stroke-opacity="0"></use></g></g><g><use xlink:href="#b4jY5Zbmje" opacity="1" fill="#ffffff" fill-opacity="1"></use><g><use xlink:href="#b4jY5Zbmje" opacity="1" fill-opacity="0" stroke="#000000" stroke-width="1" stroke-opacity="0"></use></g></g><g><use xlink:href="#auUfNV6iS" opacity="1" fill="#ffffff" fill-opacity="1"></use><g><use xlink:href="#auUfNV6iS" opacity="1" fill-opacity="0" stroke="#000000" stroke-width="1" stroke-opacity="0"></use></g></g></g></g></svg>